%TF.GenerationSoftware,KiCad,Pcbnew,10.0.1*%
%TF.CreationDate,2026-09-21T18:15:17-05:00*%
%TF.ProjectId,smart-battery,736d6172-742d-4626-9174-746572792e6b,rev?*%
%TF.SameCoordinates,Original*%
%TF.FileFunction,Other,User*%
%FSLAX46Y46*%
G04 Gerber Fmt 4.6, Leading zero omitted, Abs format (unit mm)*
G04 Created by KiCad (PCBNEW 10.0.1) date 2026-09-21 18:15:17*
%MOMM*%
%LPD*%
G01*
G04 APERTURE LIST*
%ADD10C,0.050000*%
%ADD11C,0.120000*%
G04 APERTURE END LIST*
%TO.C,LED2*%
D10*
X51720000Y-66970000D02*
X54680000Y-66970000D01*
X54680000Y-68430000D01*
X51720000Y-68430000D01*
X51720000Y-66970000D01*
%TO.C,D2*%
X73950000Y-54500000D02*
X74950000Y-54500000D01*
X73950000Y-57500000D02*
X73950000Y-54500000D01*
X74950000Y-54300000D02*
X77050000Y-54300000D01*
X74950000Y-54500000D02*
X74950000Y-54300000D01*
X74950000Y-57500000D02*
X73950000Y-57500000D01*
X74950000Y-57700000D02*
X74950000Y-57500000D01*
X77050000Y-54300000D02*
X77050000Y-54500000D01*
X77050000Y-54500000D02*
X78050000Y-54500000D01*
X77050000Y-57500000D02*
X77050000Y-57700000D01*
X77050000Y-57700000D02*
X74950000Y-57700000D01*
X78050000Y-54500000D02*
X78050000Y-57500000D01*
X78050000Y-57500000D02*
X77050000Y-57500000D01*
%TO.C,R11*%
X51520000Y-93270000D02*
X54480000Y-93270000D01*
X54480000Y-94730000D01*
X51520000Y-94730000D01*
X51520000Y-93270000D01*
%TO.C,C6*%
X73300000Y-87020000D02*
X76700000Y-87020000D01*
X76700000Y-88980000D01*
X73300000Y-88980000D01*
X73300000Y-87020000D01*
%TO.C,U2*%
X56300000Y-59540000D02*
X57800000Y-59540000D01*
X56300000Y-64460000D02*
X56300000Y-59540000D01*
X57800000Y-59300000D02*
X62200000Y-59300000D01*
X57800000Y-59540000D02*
X57800000Y-59300000D01*
X57800000Y-64460000D02*
X56300000Y-64460000D01*
X57800000Y-64700000D02*
X57800000Y-64460000D01*
X62200000Y-59300000D02*
X62200000Y-59540000D01*
X62200000Y-59540000D02*
X63700000Y-59540000D01*
X62200000Y-64460000D02*
X62200000Y-64700000D01*
X62200000Y-64700000D02*
X57800000Y-64700000D01*
X63700000Y-59540000D02*
X63700000Y-64460000D01*
X63700000Y-64460000D02*
X62200000Y-64460000D01*
%TO.C,C2*%
X64520000Y-60570000D02*
X67480000Y-60570000D01*
X67480000Y-62030000D01*
X64520000Y-62030000D01*
X64520000Y-60570000D01*
%TO.C,R14*%
X66520000Y-120270000D02*
X69480000Y-120270000D01*
X69480000Y-121730000D01*
X66520000Y-121730000D01*
X66520000Y-120270000D01*
%TO.C,LED1*%
X51720000Y-64869999D02*
X54680000Y-64869999D01*
X54680000Y-66329999D01*
X51720000Y-66329999D01*
X51720000Y-64869999D01*
%TO.C,R9*%
X59220000Y-85870000D02*
X62180000Y-85870000D01*
X62180000Y-87330000D01*
X59220000Y-87330000D01*
X59220000Y-85870000D01*
%TO.C,R2*%
X54520000Y-57270000D02*
X57480000Y-57270000D01*
X57480000Y-58730000D01*
X54520000Y-58730000D01*
X54520000Y-57270000D01*
%TO.C,J5*%
X61230000Y-130730001D02*
X74930000Y-130730001D01*
X74930000Y-134270000D01*
X61230000Y-134270000D01*
X61230000Y-130730001D01*
%TO.C,U6*%
X71370000Y-80850000D02*
X71750000Y-80850000D01*
X71370000Y-83150000D02*
X71370000Y-80850000D01*
X71750000Y-80750000D02*
X74250000Y-80750000D01*
X71750000Y-80850000D02*
X71750000Y-80750000D01*
X71750000Y-83150000D02*
X71370000Y-83150000D01*
X71750000Y-83250000D02*
X71750000Y-83150000D01*
X74250000Y-80750000D02*
X74250000Y-80850000D01*
X74250000Y-80850000D02*
X74630000Y-80850000D01*
X74250000Y-83150000D02*
X74250000Y-83250000D01*
X74250000Y-83250000D02*
X71750000Y-83250000D01*
X74630000Y-80850000D02*
X74630000Y-83150000D01*
X74630000Y-83150000D02*
X74250000Y-83150000D01*
%TO.C,Q1*%
X64570000Y-116500000D02*
X65600000Y-116500000D01*
X64570000Y-117610000D02*
X64570000Y-116500000D01*
X64570000Y-118390000D02*
X65600000Y-118390000D01*
X64570000Y-119500000D02*
X64570000Y-118390000D01*
X65600000Y-116300000D02*
X67400000Y-116300000D01*
X65600000Y-116500000D02*
X65600000Y-116300000D01*
X65600000Y-117610000D02*
X64570000Y-117610000D01*
X65600000Y-118390000D02*
X65600000Y-117610000D01*
X65600000Y-119500000D02*
X64570000Y-119500000D01*
X65600000Y-119700000D02*
X65600000Y-119500000D01*
X67400000Y-116300000D02*
X67400000Y-117450000D01*
X67400000Y-117450000D02*
X68430000Y-117450000D01*
X67400000Y-118550000D02*
X67400000Y-119700000D01*
X67400000Y-119700000D02*
X65600000Y-119700000D01*
X68430000Y-117450000D02*
X68430000Y-118550000D01*
X68430000Y-118550000D02*
X67400000Y-118550000D01*
%TO.C,J3*%
X49610000Y-75690000D02*
X49760000Y-75690000D01*
X49610000Y-80100000D02*
X49610000Y-75690000D01*
X49760000Y-71300000D02*
X52210000Y-71300000D01*
X49760000Y-75690000D02*
X49760000Y-71300000D01*
X52110000Y-79900000D02*
X52110000Y-80100000D01*
X52110000Y-80100000D02*
X49610000Y-80100000D01*
X52210000Y-69900000D02*
X56210000Y-69900000D01*
X52210000Y-71300000D02*
X52210000Y-69900000D01*
X56210000Y-69900000D02*
X56210000Y-71300000D01*
X56210000Y-71300000D02*
X58660000Y-71300000D01*
X56310000Y-79900000D02*
X52110000Y-79900000D01*
X56310000Y-80100000D02*
X56310000Y-79900000D01*
X58660000Y-71300000D02*
X58660000Y-75690000D01*
X58660000Y-75690000D02*
X58810000Y-75690000D01*
X58810000Y-75690000D02*
X58810000Y-80100000D01*
X58810000Y-80100000D02*
X56310000Y-80100000D01*
%TO.C,C1*%
X52520000Y-59270000D02*
X55480000Y-59270000D01*
X55480000Y-60730000D01*
X52520000Y-60730000D01*
X52520000Y-59270000D01*
%TO.C,U4*%
X67950000Y-71500000D02*
X68950000Y-71500000D01*
X67950000Y-74500000D02*
X67950000Y-71500000D01*
X68950000Y-71300000D02*
X71050000Y-71300000D01*
X68950000Y-71500000D02*
X68950000Y-71300000D01*
X68950000Y-74500000D02*
X67950000Y-74500000D01*
X68950000Y-74700000D02*
X68950000Y-74500000D01*
X71050000Y-71300000D02*
X71050000Y-71500000D01*
X71050000Y-71500000D02*
X72050000Y-71500000D01*
X71050000Y-74500000D02*
X71050000Y-74700000D01*
X71050000Y-74700000D02*
X68950000Y-74700000D01*
X72050000Y-71500000D02*
X72050000Y-74500000D01*
X72050000Y-74500000D02*
X71050000Y-74500000D01*
%TO.C,R7*%
X71520000Y-75270000D02*
X74480000Y-75270000D01*
X74480000Y-76730000D01*
X71520000Y-76730000D01*
X71520000Y-75270000D01*
%TO.C,R10*%
X66420000Y-85870000D02*
X69380000Y-85870000D01*
X69380000Y-87330000D01*
X66420000Y-87330000D01*
X66420000Y-85870000D01*
%TO.C,U1*%
D11*
X57000000Y-88900000D02*
X57000000Y-110000000D01*
X57000000Y-110000000D02*
X73000000Y-110000000D01*
X73000000Y-88900000D02*
X57000000Y-88900000D01*
X73000000Y-110000000D02*
X73000000Y-88900000D01*
%TO.C,R3*%
D10*
X68520000Y-61270000D02*
X71480000Y-61270000D01*
X71480000Y-62730000D01*
X68520000Y-62730000D01*
X68520000Y-61270000D01*
%TO.C,U3*%
X59950000Y-71500000D02*
X60950000Y-71500000D01*
X59950000Y-74500000D02*
X59950000Y-71500000D01*
X60950000Y-71300000D02*
X63050000Y-71300000D01*
X60950000Y-71500000D02*
X60950000Y-71300000D01*
X60950000Y-74500000D02*
X59950000Y-74500000D01*
X60950000Y-74700000D02*
X60950000Y-74500000D01*
X63050000Y-71300000D02*
X63050000Y-71500000D01*
X63050000Y-71500000D02*
X64050000Y-71500000D01*
X63050000Y-74500000D02*
X63050000Y-74700000D01*
X63050000Y-74700000D02*
X60950000Y-74700000D01*
X64050000Y-71500000D02*
X64050000Y-74500000D01*
X64050000Y-74500000D02*
X63050000Y-74500000D01*
%TO.C,R13*%
X60520000Y-120270000D02*
X63480000Y-120270000D01*
X63480000Y-121730000D01*
X60520000Y-121730000D01*
X60520000Y-120270000D01*
%TO.C,J2*%
X76230000Y-103220000D02*
X79770000Y-103220000D01*
X79770000Y-122020000D01*
X76230000Y-122020000D01*
X76230000Y-103220000D01*
%TO.C,C4*%
X62820000Y-85870000D02*
X65780000Y-85870000D01*
X65780000Y-87330000D01*
X62820000Y-87330000D01*
X62820000Y-85870000D01*
%TO.C,R6*%
X59170000Y-67770000D02*
X62130000Y-67770000D01*
X62130000Y-69230000D01*
X59170000Y-69230000D01*
X59170000Y-67770000D01*
%TO.C,C8*%
X74520000Y-96270000D02*
X77480000Y-96270000D01*
X77480000Y-97730000D01*
X74520000Y-97730000D01*
X74520000Y-96270000D01*
%TO.C,R4*%
X55320000Y-64869999D02*
X58280000Y-64869999D01*
X58280000Y-66329999D01*
X55320000Y-66329999D01*
X55320000Y-64869999D01*
%TO.C,C7*%
X74520000Y-94270000D02*
X77480000Y-94270000D01*
X77480000Y-95730000D01*
X74520000Y-95730000D01*
X74520000Y-94270000D01*
%TO.C,C5*%
X70020000Y-85870000D02*
X72980000Y-85870000D01*
X72980000Y-87330000D01*
X70020000Y-87330000D01*
X70020000Y-85870000D01*
%TO.C,R5*%
X55320000Y-66970000D02*
X58280000Y-66970000D01*
X58280000Y-68430000D01*
X55320000Y-68430000D01*
X55320000Y-66970000D01*
%TO.C,U5*%
X60500000Y-79840000D02*
X62000000Y-79840000D01*
X60500000Y-84760000D02*
X60500000Y-79840000D01*
X62000000Y-79600000D02*
X66400000Y-79600000D01*
X62000000Y-79840000D02*
X62000000Y-79600000D01*
X62000000Y-84760000D02*
X60500000Y-84760000D01*
X62000000Y-85000000D02*
X62000000Y-84760000D01*
X66400000Y-79600000D02*
X66400000Y-79840000D01*
X66400000Y-79840000D02*
X67900000Y-79840000D01*
X66400000Y-84760000D02*
X66400000Y-85000000D01*
X66400000Y-85000000D02*
X62000000Y-85000000D01*
X67900000Y-79840000D02*
X67900000Y-84760000D01*
X67900000Y-84760000D02*
X66400000Y-84760000D01*
%TO.C,R8*%
X52170000Y-80370000D02*
X59830000Y-80370000D01*
X59830000Y-84230000D01*
X52170000Y-84230000D01*
X52170000Y-80370000D01*
%TO.C,J4*%
X73230000Y-122230000D02*
X76770000Y-122230000D01*
X76770000Y-128320000D01*
X73230000Y-128320000D01*
X73230000Y-122230000D01*
%TO.C,R1*%
X52520000Y-55270000D02*
X55480000Y-55270000D01*
X55480000Y-56730000D01*
X52520000Y-56730000D01*
X52520000Y-55270000D01*
%TO.C,C10*%
X54500000Y-85200000D02*
X59100000Y-85200000D01*
X59100000Y-88400000D01*
X54500000Y-88400000D01*
X54500000Y-85200000D01*
%TO.C,J1*%
X59680000Y-57669999D02*
X59680001Y-48250000D01*
X70319999Y-57670000D02*
X59680000Y-57669999D01*
X70319999Y-57670000D02*
X70320000Y-48250001D01*
X70320000Y-48250001D02*
X59680001Y-48250000D01*
%TO.C,R12*%
X51520000Y-95270000D02*
X54480000Y-95270000D01*
X54480000Y-96730000D01*
X51520000Y-96730000D01*
X51520000Y-95270000D01*
%TO.C,D1*%
X57000000Y-115750000D02*
X64000000Y-115750000D01*
X57000000Y-119250000D02*
X57000000Y-115750000D01*
X64000000Y-115750000D02*
X64000000Y-119250000D01*
X64000000Y-119250000D02*
X57000000Y-119250000D01*
%TO.C,C3*%
X62470000Y-67770000D02*
X65430000Y-67770000D01*
X65430000Y-69230000D01*
X62470000Y-69230000D01*
X62470000Y-67770000D01*
%TO.C,C9*%
X51520000Y-97270000D02*
X54480000Y-97270000D01*
X54480000Y-98730000D01*
X51520000Y-98730000D01*
X51520000Y-97270000D01*
%TO.C,SW1*%
X49350001Y-106100000D02*
X49350000Y-113900000D01*
X54849999Y-113900000D02*
X49350000Y-113900000D01*
X54850000Y-106100000D02*
X49350001Y-106100000D01*
X54850000Y-106100000D02*
X54849999Y-113900000D01*
%TO.C,L1*%
X73720000Y-83420000D02*
X78280000Y-83420000D01*
X78280000Y-86580000D01*
X73720000Y-86580000D01*
X73720000Y-83420000D01*
%TD*%
M02*
