%TF.GenerationSoftware,KiCad,Pcbnew,10.0.1*%
%TF.CreationDate,2026-09-21T18:15:17-05:00*%
%TF.ProjectId,smart-battery,736d6172-742d-4626-9174-746572792e6b,rev?*%
%TF.SameCoordinates,Original*%
%TF.FileFunction,Legend,Top*%
%TF.FilePolarity,Positive*%
%FSLAX46Y46*%
G04 Gerber Fmt 4.6, Leading zero omitted, Abs format (unit mm)*
G04 Created by KiCad (PCBNEW 10.0.1) date 2026-09-21 18:15:17*
%MOMM*%
%LPD*%
G01*
G04 APERTURE LIST*
%ADD10C,0.150000*%
%ADD11C,0.120000*%
G04 APERTURE END LIST*
D10*
X59238095Y-58054819D02*
X59238095Y-58864342D01*
X59238095Y-58864342D02*
X59285714Y-58959580D01*
X59285714Y-58959580D02*
X59333333Y-59007200D01*
X59333333Y-59007200D02*
X59428571Y-59054819D01*
X59428571Y-59054819D02*
X59619047Y-59054819D01*
X59619047Y-59054819D02*
X59714285Y-59007200D01*
X59714285Y-59007200D02*
X59761904Y-58959580D01*
X59761904Y-58959580D02*
X59809523Y-58864342D01*
X59809523Y-58864342D02*
X59809523Y-58054819D01*
X60238095Y-58150057D02*
X60285714Y-58102438D01*
X60285714Y-58102438D02*
X60380952Y-58054819D01*
X60380952Y-58054819D02*
X60619047Y-58054819D01*
X60619047Y-58054819D02*
X60714285Y-58102438D01*
X60714285Y-58102438D02*
X60761904Y-58150057D01*
X60761904Y-58150057D02*
X60809523Y-58245295D01*
X60809523Y-58245295D02*
X60809523Y-58340533D01*
X60809523Y-58340533D02*
X60761904Y-58483390D01*
X60761904Y-58483390D02*
X60190476Y-59054819D01*
X60190476Y-59054819D02*
X60809523Y-59054819D01*
X60074819Y-132833333D02*
X60789104Y-132833333D01*
X60789104Y-132833333D02*
X60931961Y-132880952D01*
X60931961Y-132880952D02*
X61027200Y-132976190D01*
X61027200Y-132976190D02*
X61074819Y-133119047D01*
X61074819Y-133119047D02*
X61074819Y-133214285D01*
X60074819Y-131880952D02*
X60074819Y-132357142D01*
X60074819Y-132357142D02*
X60551009Y-132404761D01*
X60551009Y-132404761D02*
X60503390Y-132357142D01*
X60503390Y-132357142D02*
X60455771Y-132261904D01*
X60455771Y-132261904D02*
X60455771Y-132023809D01*
X60455771Y-132023809D02*
X60503390Y-131928571D01*
X60503390Y-131928571D02*
X60551009Y-131880952D01*
X60551009Y-131880952D02*
X60646247Y-131833333D01*
X60646247Y-131833333D02*
X60884342Y-131833333D01*
X60884342Y-131833333D02*
X60979580Y-131880952D01*
X60979580Y-131880952D02*
X61027200Y-131928571D01*
X61027200Y-131928571D02*
X61074819Y-132023809D01*
X61074819Y-132023809D02*
X61074819Y-132261904D01*
X61074819Y-132261904D02*
X61027200Y-132357142D01*
X61027200Y-132357142D02*
X60979580Y-132404761D01*
X72238095Y-79504819D02*
X72238095Y-80314342D01*
X72238095Y-80314342D02*
X72285714Y-80409580D01*
X72285714Y-80409580D02*
X72333333Y-80457200D01*
X72333333Y-80457200D02*
X72428571Y-80504819D01*
X72428571Y-80504819D02*
X72619047Y-80504819D01*
X72619047Y-80504819D02*
X72714285Y-80457200D01*
X72714285Y-80457200D02*
X72761904Y-80409580D01*
X72761904Y-80409580D02*
X72809523Y-80314342D01*
X72809523Y-80314342D02*
X72809523Y-79504819D01*
X73714285Y-79504819D02*
X73523809Y-79504819D01*
X73523809Y-79504819D02*
X73428571Y-79552438D01*
X73428571Y-79552438D02*
X73380952Y-79600057D01*
X73380952Y-79600057D02*
X73285714Y-79742914D01*
X73285714Y-79742914D02*
X73238095Y-79933390D01*
X73238095Y-79933390D02*
X73238095Y-80314342D01*
X73238095Y-80314342D02*
X73285714Y-80409580D01*
X73285714Y-80409580D02*
X73333333Y-80457200D01*
X73333333Y-80457200D02*
X73428571Y-80504819D01*
X73428571Y-80504819D02*
X73619047Y-80504819D01*
X73619047Y-80504819D02*
X73714285Y-80457200D01*
X73714285Y-80457200D02*
X73761904Y-80409580D01*
X73761904Y-80409580D02*
X73809523Y-80314342D01*
X73809523Y-80314342D02*
X73809523Y-80076247D01*
X73809523Y-80076247D02*
X73761904Y-79981009D01*
X73761904Y-79981009D02*
X73714285Y-79933390D01*
X73714285Y-79933390D02*
X73619047Y-79885771D01*
X73619047Y-79885771D02*
X73428571Y-79885771D01*
X73428571Y-79885771D02*
X73333333Y-79933390D01*
X73333333Y-79933390D02*
X73285714Y-79981009D01*
X73285714Y-79981009D02*
X73238095Y-80076247D01*
X53876666Y-68654819D02*
X53876666Y-69369104D01*
X53876666Y-69369104D02*
X53829047Y-69511961D01*
X53829047Y-69511961D02*
X53733809Y-69607200D01*
X53733809Y-69607200D02*
X53590952Y-69654819D01*
X53590952Y-69654819D02*
X53495714Y-69654819D01*
X54257619Y-68654819D02*
X54876666Y-68654819D01*
X54876666Y-68654819D02*
X54543333Y-69035771D01*
X54543333Y-69035771D02*
X54686190Y-69035771D01*
X54686190Y-69035771D02*
X54781428Y-69083390D01*
X54781428Y-69083390D02*
X54829047Y-69131009D01*
X54829047Y-69131009D02*
X54876666Y-69226247D01*
X54876666Y-69226247D02*
X54876666Y-69464342D01*
X54876666Y-69464342D02*
X54829047Y-69559580D01*
X54829047Y-69559580D02*
X54781428Y-69607200D01*
X54781428Y-69607200D02*
X54686190Y-69654819D01*
X54686190Y-69654819D02*
X54400476Y-69654819D01*
X54400476Y-69654819D02*
X54305238Y-69607200D01*
X54305238Y-69607200D02*
X54257619Y-69559580D01*
X69238095Y-70054819D02*
X69238095Y-70864342D01*
X69238095Y-70864342D02*
X69285714Y-70959580D01*
X69285714Y-70959580D02*
X69333333Y-71007200D01*
X69333333Y-71007200D02*
X69428571Y-71054819D01*
X69428571Y-71054819D02*
X69619047Y-71054819D01*
X69619047Y-71054819D02*
X69714285Y-71007200D01*
X69714285Y-71007200D02*
X69761904Y-70959580D01*
X69761904Y-70959580D02*
X69809523Y-70864342D01*
X69809523Y-70864342D02*
X69809523Y-70054819D01*
X70714285Y-70388152D02*
X70714285Y-71054819D01*
X70476190Y-70007200D02*
X70238095Y-70721485D01*
X70238095Y-70721485D02*
X70857142Y-70721485D01*
X64238095Y-87654819D02*
X64238095Y-88464342D01*
X64238095Y-88464342D02*
X64285714Y-88559580D01*
X64285714Y-88559580D02*
X64333333Y-88607200D01*
X64333333Y-88607200D02*
X64428571Y-88654819D01*
X64428571Y-88654819D02*
X64619047Y-88654819D01*
X64619047Y-88654819D02*
X64714285Y-88607200D01*
X64714285Y-88607200D02*
X64761904Y-88559580D01*
X64761904Y-88559580D02*
X64809523Y-88464342D01*
X64809523Y-88464342D02*
X64809523Y-87654819D01*
X65809523Y-88654819D02*
X65238095Y-88654819D01*
X65523809Y-88654819D02*
X65523809Y-87654819D01*
X65523809Y-87654819D02*
X65428571Y-87797676D01*
X65428571Y-87797676D02*
X65333333Y-87892914D01*
X65333333Y-87892914D02*
X65238095Y-87940533D01*
X60238094Y-91719104D02*
X60714284Y-91719104D01*
X60142856Y-92004819D02*
X60476189Y-91004819D01*
X60476189Y-91004819D02*
X60809522Y-92004819D01*
X61142856Y-91338152D02*
X61142856Y-92004819D01*
X61142856Y-91433390D02*
X61190475Y-91385771D01*
X61190475Y-91385771D02*
X61285713Y-91338152D01*
X61285713Y-91338152D02*
X61428570Y-91338152D01*
X61428570Y-91338152D02*
X61523808Y-91385771D01*
X61523808Y-91385771D02*
X61571427Y-91481009D01*
X61571427Y-91481009D02*
X61571427Y-92004819D01*
X61904761Y-91338152D02*
X62285713Y-91338152D01*
X62047618Y-91004819D02*
X62047618Y-91861961D01*
X62047618Y-91861961D02*
X62095237Y-91957200D01*
X62095237Y-91957200D02*
X62190475Y-92004819D01*
X62190475Y-92004819D02*
X62285713Y-92004819D01*
X62999999Y-91957200D02*
X62904761Y-92004819D01*
X62904761Y-92004819D02*
X62714285Y-92004819D01*
X62714285Y-92004819D02*
X62619047Y-91957200D01*
X62619047Y-91957200D02*
X62571428Y-91861961D01*
X62571428Y-91861961D02*
X62571428Y-91481009D01*
X62571428Y-91481009D02*
X62619047Y-91385771D01*
X62619047Y-91385771D02*
X62714285Y-91338152D01*
X62714285Y-91338152D02*
X62904761Y-91338152D01*
X62904761Y-91338152D02*
X62999999Y-91385771D01*
X62999999Y-91385771D02*
X63047618Y-91481009D01*
X63047618Y-91481009D02*
X63047618Y-91576247D01*
X63047618Y-91576247D02*
X62571428Y-91671485D01*
X63476190Y-91338152D02*
X63476190Y-92004819D01*
X63476190Y-91433390D02*
X63523809Y-91385771D01*
X63523809Y-91385771D02*
X63619047Y-91338152D01*
X63619047Y-91338152D02*
X63761904Y-91338152D01*
X63761904Y-91338152D02*
X63857142Y-91385771D01*
X63857142Y-91385771D02*
X63904761Y-91481009D01*
X63904761Y-91481009D02*
X63904761Y-92004819D01*
X64380952Y-91338152D02*
X64380952Y-92004819D01*
X64380952Y-91433390D02*
X64428571Y-91385771D01*
X64428571Y-91385771D02*
X64523809Y-91338152D01*
X64523809Y-91338152D02*
X64666666Y-91338152D01*
X64666666Y-91338152D02*
X64761904Y-91385771D01*
X64761904Y-91385771D02*
X64809523Y-91481009D01*
X64809523Y-91481009D02*
X64809523Y-92004819D01*
X65714285Y-92004819D02*
X65714285Y-91481009D01*
X65714285Y-91481009D02*
X65666666Y-91385771D01*
X65666666Y-91385771D02*
X65571428Y-91338152D01*
X65571428Y-91338152D02*
X65380952Y-91338152D01*
X65380952Y-91338152D02*
X65285714Y-91385771D01*
X65714285Y-91957200D02*
X65619047Y-92004819D01*
X65619047Y-92004819D02*
X65380952Y-92004819D01*
X65380952Y-92004819D02*
X65285714Y-91957200D01*
X65285714Y-91957200D02*
X65238095Y-91861961D01*
X65238095Y-91861961D02*
X65238095Y-91766723D01*
X65238095Y-91766723D02*
X65285714Y-91671485D01*
X65285714Y-91671485D02*
X65380952Y-91623866D01*
X65380952Y-91623866D02*
X65619047Y-91623866D01*
X65619047Y-91623866D02*
X65714285Y-91576247D01*
X66904762Y-91719104D02*
X67380952Y-91719104D01*
X66809524Y-92004819D02*
X67142857Y-91004819D01*
X67142857Y-91004819D02*
X67476190Y-92004819D01*
X67809524Y-92004819D02*
X67809524Y-91338152D01*
X67809524Y-91528628D02*
X67857143Y-91433390D01*
X67857143Y-91433390D02*
X67904762Y-91385771D01*
X67904762Y-91385771D02*
X68000000Y-91338152D01*
X68000000Y-91338152D02*
X68095238Y-91338152D01*
X68809524Y-91957200D02*
X68714286Y-92004819D01*
X68714286Y-92004819D02*
X68523810Y-92004819D01*
X68523810Y-92004819D02*
X68428572Y-91957200D01*
X68428572Y-91957200D02*
X68380953Y-91861961D01*
X68380953Y-91861961D02*
X68380953Y-91481009D01*
X68380953Y-91481009D02*
X68428572Y-91385771D01*
X68428572Y-91385771D02*
X68523810Y-91338152D01*
X68523810Y-91338152D02*
X68714286Y-91338152D01*
X68714286Y-91338152D02*
X68809524Y-91385771D01*
X68809524Y-91385771D02*
X68857143Y-91481009D01*
X68857143Y-91481009D02*
X68857143Y-91576247D01*
X68857143Y-91576247D02*
X68380953Y-91671485D01*
X69714286Y-92004819D02*
X69714286Y-91481009D01*
X69714286Y-91481009D02*
X69666667Y-91385771D01*
X69666667Y-91385771D02*
X69571429Y-91338152D01*
X69571429Y-91338152D02*
X69380953Y-91338152D01*
X69380953Y-91338152D02*
X69285715Y-91385771D01*
X69714286Y-91957200D02*
X69619048Y-92004819D01*
X69619048Y-92004819D02*
X69380953Y-92004819D01*
X69380953Y-92004819D02*
X69285715Y-91957200D01*
X69285715Y-91957200D02*
X69238096Y-91861961D01*
X69238096Y-91861961D02*
X69238096Y-91766723D01*
X69238096Y-91766723D02*
X69285715Y-91671485D01*
X69285715Y-91671485D02*
X69380953Y-91623866D01*
X69380953Y-91623866D02*
X69619048Y-91623866D01*
X69619048Y-91623866D02*
X69714286Y-91576247D01*
X61238095Y-70054819D02*
X61238095Y-70864342D01*
X61238095Y-70864342D02*
X61285714Y-70959580D01*
X61285714Y-70959580D02*
X61333333Y-71007200D01*
X61333333Y-71007200D02*
X61428571Y-71054819D01*
X61428571Y-71054819D02*
X61619047Y-71054819D01*
X61619047Y-71054819D02*
X61714285Y-71007200D01*
X61714285Y-71007200D02*
X61761904Y-70959580D01*
X61761904Y-70959580D02*
X61809523Y-70864342D01*
X61809523Y-70864342D02*
X61809523Y-70054819D01*
X62190476Y-70054819D02*
X62809523Y-70054819D01*
X62809523Y-70054819D02*
X62476190Y-70435771D01*
X62476190Y-70435771D02*
X62619047Y-70435771D01*
X62619047Y-70435771D02*
X62714285Y-70483390D01*
X62714285Y-70483390D02*
X62761904Y-70531009D01*
X62761904Y-70531009D02*
X62809523Y-70626247D01*
X62809523Y-70626247D02*
X62809523Y-70864342D01*
X62809523Y-70864342D02*
X62761904Y-70959580D01*
X62761904Y-70959580D02*
X62714285Y-71007200D01*
X62714285Y-71007200D02*
X62619047Y-71054819D01*
X62619047Y-71054819D02*
X62333333Y-71054819D01*
X62333333Y-71054819D02*
X62238095Y-71007200D01*
X62238095Y-71007200D02*
X62190476Y-70959580D01*
X77666666Y-102074819D02*
X77666666Y-102789104D01*
X77666666Y-102789104D02*
X77619047Y-102931961D01*
X77619047Y-102931961D02*
X77523809Y-103027200D01*
X77523809Y-103027200D02*
X77380952Y-103074819D01*
X77380952Y-103074819D02*
X77285714Y-103074819D01*
X78095238Y-102170057D02*
X78142857Y-102122438D01*
X78142857Y-102122438D02*
X78238095Y-102074819D01*
X78238095Y-102074819D02*
X78476190Y-102074819D01*
X78476190Y-102074819D02*
X78571428Y-102122438D01*
X78571428Y-102122438D02*
X78619047Y-102170057D01*
X78619047Y-102170057D02*
X78666666Y-102265295D01*
X78666666Y-102265295D02*
X78666666Y-102360533D01*
X78666666Y-102360533D02*
X78619047Y-102503390D01*
X78619047Y-102503390D02*
X78047619Y-103074819D01*
X78047619Y-103074819D02*
X78666666Y-103074819D01*
X63438095Y-78354819D02*
X63438095Y-79164342D01*
X63438095Y-79164342D02*
X63485714Y-79259580D01*
X63485714Y-79259580D02*
X63533333Y-79307200D01*
X63533333Y-79307200D02*
X63628571Y-79354819D01*
X63628571Y-79354819D02*
X63819047Y-79354819D01*
X63819047Y-79354819D02*
X63914285Y-79307200D01*
X63914285Y-79307200D02*
X63961904Y-79259580D01*
X63961904Y-79259580D02*
X64009523Y-79164342D01*
X64009523Y-79164342D02*
X64009523Y-78354819D01*
X64961904Y-78354819D02*
X64485714Y-78354819D01*
X64485714Y-78354819D02*
X64438095Y-78831009D01*
X64438095Y-78831009D02*
X64485714Y-78783390D01*
X64485714Y-78783390D02*
X64580952Y-78735771D01*
X64580952Y-78735771D02*
X64819047Y-78735771D01*
X64819047Y-78735771D02*
X64914285Y-78783390D01*
X64914285Y-78783390D02*
X64961904Y-78831009D01*
X64961904Y-78831009D02*
X65009523Y-78926247D01*
X65009523Y-78926247D02*
X65009523Y-79164342D01*
X65009523Y-79164342D02*
X64961904Y-79259580D01*
X64961904Y-79259580D02*
X64914285Y-79307200D01*
X64914285Y-79307200D02*
X64819047Y-79354819D01*
X64819047Y-79354819D02*
X64580952Y-79354819D01*
X64580952Y-79354819D02*
X64485714Y-79307200D01*
X64485714Y-79307200D02*
X64438095Y-79259580D01*
X74666666Y-121074819D02*
X74666666Y-121789104D01*
X74666666Y-121789104D02*
X74619047Y-121931961D01*
X74619047Y-121931961D02*
X74523809Y-122027200D01*
X74523809Y-122027200D02*
X74380952Y-122074819D01*
X74380952Y-122074819D02*
X74285714Y-122074819D01*
X75571428Y-121408152D02*
X75571428Y-122074819D01*
X75333333Y-121027200D02*
X75095238Y-121741485D01*
X75095238Y-121741485D02*
X75714285Y-121741485D01*
X64666666Y-57499819D02*
X64666666Y-58214104D01*
X64666666Y-58214104D02*
X64619047Y-58356961D01*
X64619047Y-58356961D02*
X64523809Y-58452200D01*
X64523809Y-58452200D02*
X64380952Y-58499819D01*
X64380952Y-58499819D02*
X64285714Y-58499819D01*
X65666666Y-58499819D02*
X65095238Y-58499819D01*
X65380952Y-58499819D02*
X65380952Y-57499819D01*
X65380952Y-57499819D02*
X65285714Y-57642676D01*
X65285714Y-57642676D02*
X65190476Y-57737914D01*
X65190476Y-57737914D02*
X65095238Y-57785533D01*
X48507200Y-111333332D02*
X48554819Y-111190475D01*
X48554819Y-111190475D02*
X48554819Y-110952380D01*
X48554819Y-110952380D02*
X48507200Y-110857142D01*
X48507200Y-110857142D02*
X48459580Y-110809523D01*
X48459580Y-110809523D02*
X48364342Y-110761904D01*
X48364342Y-110761904D02*
X48269104Y-110761904D01*
X48269104Y-110761904D02*
X48173866Y-110809523D01*
X48173866Y-110809523D02*
X48126247Y-110857142D01*
X48126247Y-110857142D02*
X48078628Y-110952380D01*
X48078628Y-110952380D02*
X48031009Y-111142856D01*
X48031009Y-111142856D02*
X47983390Y-111238094D01*
X47983390Y-111238094D02*
X47935771Y-111285713D01*
X47935771Y-111285713D02*
X47840533Y-111333332D01*
X47840533Y-111333332D02*
X47745295Y-111333332D01*
X47745295Y-111333332D02*
X47650057Y-111285713D01*
X47650057Y-111285713D02*
X47602438Y-111238094D01*
X47602438Y-111238094D02*
X47554819Y-111142856D01*
X47554819Y-111142856D02*
X47554819Y-110904761D01*
X47554819Y-110904761D02*
X47602438Y-110761904D01*
X47554819Y-110428570D02*
X48554819Y-110190475D01*
X48554819Y-110190475D02*
X47840533Y-109999999D01*
X47840533Y-109999999D02*
X48554819Y-109809523D01*
X48554819Y-109809523D02*
X47554819Y-109571428D01*
X48554819Y-108666666D02*
X48554819Y-109238094D01*
X48554819Y-108952380D02*
X47554819Y-108952380D01*
X47554819Y-108952380D02*
X47697676Y-109047618D01*
X47697676Y-109047618D02*
X47792914Y-109142856D01*
X47792914Y-109142856D02*
X47840533Y-109238094D01*
%TO.C,LED2*%
D11*
X51715000Y-66965000D02*
X51715000Y-68435000D01*
X51715000Y-68435000D02*
X54000000Y-68435000D01*
X54000000Y-66965000D02*
X51715000Y-66965000D01*
%TO.C,D2*%
X75090000Y-54440000D02*
X76910000Y-54440000D01*
X75090000Y-54490000D02*
X75090000Y-54440000D01*
X75090000Y-57560000D02*
X75090000Y-57510000D01*
X76910000Y-54440000D02*
X76910000Y-54490000D01*
X76910000Y-57510000D02*
X76910000Y-57560000D01*
X76910000Y-57560000D02*
X75090000Y-57560000D01*
X74550000Y-54490000D02*
X74310000Y-54160000D01*
X74790000Y-54160000D01*
X74550000Y-54490000D01*
G36*
X74550000Y-54490000D02*
G01*
X74310000Y-54160000D01*
X74790000Y-54160000D01*
X74550000Y-54490000D01*
G37*
%TO.C,R11*%
X52762742Y-93477500D02*
X53237258Y-93477500D01*
X52762742Y-94522500D02*
X53237258Y-94522500D01*
%TO.C,C6*%
X74738748Y-87265000D02*
X75261252Y-87265000D01*
X74738748Y-88735000D02*
X75261252Y-88735000D01*
%TO.C,U2*%
X57940000Y-59440000D02*
X62060000Y-59440000D01*
X57940000Y-59535000D02*
X57940000Y-59440000D01*
X57940000Y-64560000D02*
X57940000Y-64465000D01*
X62060000Y-59440000D02*
X62060000Y-59535000D01*
X62060000Y-64465000D02*
X62060000Y-64560000D01*
X62060000Y-64560000D02*
X57940000Y-64560000D01*
X57340000Y-59530000D02*
X57100000Y-59200000D01*
X57580000Y-59200000D01*
X57340000Y-59530000D01*
G36*
X57340000Y-59530000D02*
G01*
X57100000Y-59200000D01*
X57580000Y-59200000D01*
X57340000Y-59530000D01*
G37*
%TO.C,C2*%
X65859420Y-60790000D02*
X66140580Y-60790000D01*
X65859420Y-61810000D02*
X66140580Y-61810000D01*
%TO.C,R14*%
X67762742Y-120477500D02*
X68237258Y-120477500D01*
X67762742Y-121522500D02*
X68237258Y-121522500D01*
%TO.C,LED1*%
X51715000Y-64864999D02*
X51715000Y-66334999D01*
X51715000Y-66334999D02*
X54000000Y-66334999D01*
X54000000Y-64864999D02*
X51715000Y-64864999D01*
%TO.C,R9*%
X60462742Y-86077500D02*
X60937258Y-86077500D01*
X60462742Y-87122500D02*
X60937258Y-87122500D01*
%TO.C,R2*%
X55762742Y-57477500D02*
X56237258Y-57477500D01*
X55762742Y-58522500D02*
X56237258Y-58522500D01*
%TO.C,J5*%
X61620000Y-133880000D02*
X61620000Y-132500000D01*
X63000000Y-133880000D02*
X61620000Y-133880000D01*
X64270000Y-131120000D02*
X74540000Y-131120001D01*
X64270000Y-133880000D02*
X64270000Y-131120000D01*
X64270000Y-133880000D02*
X74540000Y-133880000D01*
X74540000Y-133880000D02*
X74540000Y-131120001D01*
%TO.C,U6*%
X72270748Y-80840000D02*
X74110000Y-80840000D01*
X74110000Y-83160000D02*
X71890000Y-83160000D01*
X71980000Y-80830000D02*
X71840000Y-80640000D01*
X72120000Y-80640000D01*
X71980000Y-80830000D01*
G36*
X71980000Y-80830000D02*
G01*
X71840000Y-80640000D01*
X72120000Y-80640000D01*
X71980000Y-80830000D01*
G37*
%TO.C,Q1*%
X65740000Y-116440000D02*
X67260000Y-116440000D01*
X65740000Y-116490000D02*
X65740000Y-116440000D01*
X65740000Y-118390000D02*
X65740000Y-117610000D01*
X65740000Y-119560000D02*
X65740000Y-119510000D01*
X67260000Y-116440000D02*
X67260000Y-117440000D01*
X67260000Y-118560000D02*
X67260000Y-119560000D01*
X67260000Y-119560000D02*
X65740000Y-119560000D01*
X65440000Y-117950000D02*
X64960000Y-117950000D01*
X65200000Y-117620000D01*
X65440000Y-117950000D01*
G36*
X65440000Y-117950000D02*
G01*
X64960000Y-117950000D01*
X65200000Y-117620000D01*
X65440000Y-117950000D01*
G37*
%TO.C,J3*%
X50150000Y-71690000D02*
X51170000Y-71690000D01*
X50150000Y-75940000D02*
X50150000Y-71690000D01*
X51170000Y-71690000D02*
X51170000Y-73290000D01*
X51170000Y-73290000D02*
X52450000Y-73290000D01*
X51870000Y-79510000D02*
X56550000Y-79510000D01*
X52450000Y-73290000D02*
X52450000Y-70400000D01*
X57250000Y-71690000D02*
X57250000Y-73290000D01*
X57250000Y-73290000D02*
X55970000Y-73290000D01*
X58270000Y-71690000D02*
X57250000Y-71690000D01*
X58270000Y-75940000D02*
X58270000Y-71690000D01*
%TO.C,C1*%
X53859420Y-59490000D02*
X54140580Y-59490000D01*
X53859420Y-60510000D02*
X54140580Y-60510000D01*
%TO.C,U4*%
X69090000Y-71440000D02*
X70910000Y-71440000D01*
X69090000Y-71490000D02*
X69090000Y-71440000D01*
X69090000Y-74560000D02*
X69090000Y-74510000D01*
X70910000Y-71440000D02*
X70910000Y-71490000D01*
X70910000Y-74510000D02*
X70910000Y-74560000D01*
X70910000Y-74560000D02*
X69090000Y-74560000D01*
X68550000Y-71490000D02*
X68310000Y-71160000D01*
X68790000Y-71160000D01*
X68550000Y-71490000D01*
G36*
X68550000Y-71490000D02*
G01*
X68310000Y-71160000D01*
X68790000Y-71160000D01*
X68550000Y-71490000D01*
G37*
%TO.C,R7*%
X72762742Y-75477500D02*
X73237258Y-75477500D01*
X72762742Y-76522500D02*
X73237258Y-76522500D01*
%TO.C,R10*%
X67662742Y-86077500D02*
X68137258Y-86077500D01*
X67662742Y-87122500D02*
X68137258Y-87122500D01*
%TO.C,U1*%
X57150000Y-109850000D02*
X57150000Y-108800000D01*
X57300000Y-89200000D02*
X57300000Y-94300000D01*
X57300000Y-89200000D02*
X72700000Y-89200000D01*
X57300000Y-109700000D02*
X57300000Y-94300000D01*
X58200000Y-109850000D02*
X57150000Y-109850000D01*
X58350000Y-89050000D02*
X57150000Y-89050000D01*
X71800000Y-89050000D02*
X72850000Y-89050000D01*
X71800000Y-109850000D02*
X72850000Y-109850000D01*
X72700000Y-89200000D02*
X72700000Y-94300000D01*
X72700000Y-94300000D02*
X72700000Y-109700000D01*
X72700000Y-109700000D02*
X57300000Y-109700000D01*
X72850000Y-89050000D02*
X72850000Y-90050000D01*
X72850000Y-109850000D02*
X72850000Y-108800000D01*
%TO.C,R3*%
X69762742Y-61477500D02*
X70237258Y-61477500D01*
X69762742Y-62522500D02*
X70237258Y-62522500D01*
%TO.C,U3*%
X61090000Y-71440000D02*
X62910000Y-71440000D01*
X61090000Y-71490000D02*
X61090000Y-71440000D01*
X61090000Y-74560000D02*
X61090000Y-74510000D01*
X62910000Y-71440000D02*
X62910000Y-71490000D01*
X62910000Y-74510000D02*
X62910000Y-74560000D01*
X62910000Y-74560000D02*
X61090000Y-74560000D01*
X60550000Y-71490000D02*
X60310000Y-71160000D01*
X60790000Y-71160000D01*
X60550000Y-71490000D01*
G36*
X60550000Y-71490000D02*
G01*
X60310000Y-71160000D01*
X60790000Y-71160000D01*
X60550000Y-71490000D01*
G37*
%TO.C,R13*%
X61762742Y-120477500D02*
X62237258Y-120477500D01*
X61762742Y-121522500D02*
X62237258Y-121522500D01*
%TO.C,J2*%
X76620000Y-103620000D02*
X78000000Y-103620000D01*
X76620000Y-105000000D02*
X76620000Y-103620000D01*
X76620000Y-106270000D02*
X76620000Y-121620000D01*
X76620000Y-106270000D02*
X79380000Y-106270000D01*
X76620000Y-121620000D02*
X79380000Y-121620000D01*
X79380000Y-106270000D02*
X79380000Y-121620000D01*
%TO.C,C4*%
X64159420Y-86090000D02*
X64440580Y-86090000D01*
X64159420Y-87110000D02*
X64440580Y-87110000D01*
%TO.C,R6*%
X60412742Y-67977500D02*
X60887258Y-67977500D01*
X60412742Y-69022500D02*
X60887258Y-69022500D01*
%TO.C,C8*%
X75859420Y-96490000D02*
X76140580Y-96490000D01*
X75859420Y-97510000D02*
X76140580Y-97510000D01*
%TO.C,R4*%
X56562742Y-65077499D02*
X57037258Y-65077499D01*
X56562742Y-66122499D02*
X57037258Y-66122499D01*
%TO.C,C7*%
X75859420Y-94490000D02*
X76140580Y-94490000D01*
X75859420Y-95510000D02*
X76140580Y-95510000D01*
%TO.C,C5*%
X71359420Y-86090000D02*
X71640580Y-86090000D01*
X71359420Y-87110000D02*
X71640580Y-87110000D01*
%TO.C,R5*%
X56562742Y-67177500D02*
X57037258Y-67177500D01*
X56562742Y-68222500D02*
X57037258Y-68222500D01*
%TO.C,U5*%
X62140000Y-79740000D02*
X66260000Y-79740000D01*
X62140000Y-79835000D02*
X62140000Y-79740000D01*
X62140000Y-84860000D02*
X62140000Y-84765000D01*
X66260000Y-79740000D02*
X66260000Y-79835000D01*
X66260000Y-84765000D02*
X66260000Y-84860000D01*
X66260000Y-84860000D02*
X62140000Y-84860000D01*
X61600000Y-79830000D02*
X61360000Y-79500000D01*
X61840000Y-79500000D01*
X61600000Y-79830000D01*
G36*
X61600000Y-79830000D02*
G01*
X61360000Y-79500000D01*
X61840000Y-79500000D01*
X61600000Y-79830000D01*
G37*
%TO.C,R8*%
X53822936Y-80590000D02*
X58177064Y-80590000D01*
X53822936Y-84010000D02*
X58177064Y-84010000D01*
%TO.C,J4*%
X73620000Y-122620000D02*
X75000000Y-122620000D01*
X73620000Y-124000000D02*
X73620000Y-122620000D01*
X73620000Y-125270000D02*
X73620000Y-127920000D01*
X73620000Y-125270000D02*
X76380000Y-125270000D01*
X73620000Y-127920000D02*
X76380000Y-127920000D01*
X76380000Y-125270000D02*
X76380000Y-127920000D01*
%TO.C,R1*%
X53762742Y-55477500D02*
X54237258Y-55477500D01*
X53762742Y-56522500D02*
X54237258Y-56522500D01*
%TO.C,C10*%
X56088748Y-85440000D02*
X57511252Y-85440000D01*
X56088748Y-88160000D02*
X57511252Y-88160000D01*
%TO.C,J1*%
X60300000Y-50400000D02*
X60300001Y-48500000D01*
X60300000Y-54299999D02*
X60300000Y-52300000D01*
X69700000Y-48500001D02*
X60300001Y-48500000D01*
X69700000Y-50400001D02*
X69700000Y-48500001D01*
X69700000Y-54300000D02*
X69700000Y-52300001D01*
%TO.C,R12*%
X52762742Y-95477500D02*
X53237258Y-95477500D01*
X52762742Y-96522500D02*
X53237258Y-96522500D01*
%TO.C,D1*%
X56990000Y-115850000D02*
X56990000Y-119150000D01*
X56990000Y-115850000D02*
X62500000Y-115850000D01*
X56990000Y-119150000D02*
X62500000Y-119150000D01*
%TO.C,C3*%
X63809420Y-67990000D02*
X64090580Y-67990000D01*
X63809420Y-69010000D02*
X64090580Y-69010000D01*
%TO.C,C9*%
X52859420Y-97490000D02*
X53140580Y-97490000D01*
X52859420Y-98510000D02*
X53140580Y-98510000D01*
%TO.C,SW1*%
X50750000Y-111425000D02*
X50750000Y-112350000D01*
X50750001Y-107650000D02*
X50750000Y-108575000D01*
X52874999Y-112450000D02*
X52325000Y-112450000D01*
X52875000Y-107550000D02*
X52325001Y-107550000D01*
X54450000Y-107650000D02*
X54449999Y-112350000D01*
%TO.C,L1*%
X75397936Y-83640000D02*
X76602064Y-83640000D01*
X75397936Y-86360000D02*
X76602064Y-86360000D01*
%TD*%
M02*
