M48
; DRILL file KiCad 10.0.1 date 2026-09-21T18:15:17
; FORMAT={-:-/ absolute / metric / decimal}
; #@! TF.CreationDate,2026-09-21T18:15:17-05:00
; #@! TF.GenerationSoftware,Kicad,Pcbnew,10.0.1
; #@! TF.FileFunction,MixedPlating,1,2
FMAT,2
METRIC
; #@! TA.AperFunction,Plated,PTH,ViaDrill
T1C0.300
; #@! TA.AperFunction,Plated,PTH,ComponentDrill
T2C0.600
; #@! TA.AperFunction,Plated,PTH,ComponentDrill
T3C1.000
; #@! TA.AperFunction,NonPlated,NPTH,ComponentDrill
T4C0.650
%
G90
G05
T1
X51.8Y-107.4
X52.2Y-96.0
X52.2Y-97.6
X52.4Y-65.6
X52.4Y-67.7
X52.7Y-87.0
X53.0Y-95.1
X53.2Y-60.0
X54.0Y-93.8
X54.15Y-112.625
X54.15Y-107.375
X54.2Y-61.0
X54.4Y-67.5
X54.5Y-99.2
X54.6Y-84.8
X54.7Y-95.1
X54.9Y-94.2
X55.3Y-60.3
X55.4Y-72.5
X55.525Y-56.0
X55.8Y-86.2
X56.2Y-57.0
X56.4Y-97.6
X56.5Y-99.8
X56.8Y-58.0
X57.0Y-60.3
X57.1Y-96.5
X57.2Y-121.5
X57.4Y-63.9
X57.4Y-67.5
X57.4Y-97.7
X57.628Y-87.068
X58.0Y-106.2
X58.4Y-63.9
X58.555Y-110.34
X58.6Y-117.6
X58.9Y-102.1
X58.9Y-105.2
X59.0Y-97.3
X59.1Y-81.8
X59.244Y-60.88
X59.5Y-102.9
X59.7Y-64.1
X59.7Y-106.8
X59.8Y-85.4
X59.9Y-86.6
X60.0Y-62.0
X60.1Y-80.2
X60.674Y-62.974
X61.0Y-57.9
X61.0Y-104.3
X61.5Y-86.6
X61.8Y-79.3
X62.2Y-84.1
X62.3Y-106.8
X62.372Y-80.663
X62.425Y-81.665
X62.5Y-85.9
X62.5Y-109.0
X62.55Y-57.6
X62.55Y-59.7
X62.6Y-62.6
X63.0Y-83.4
X63.1Y-66.8
X63.1Y-73.0
X63.4Y-61.7
X63.5Y-126.6
X63.997Y-102.268
X64.0Y-64.6
X64.05Y-103.65
X64.3Y-107.7
X64.5Y-127.5
X64.8Y-64.1
X64.8Y-83.2
X64.95Y-100.35
X65.075Y-86.6
X65.647Y-102.268
X65.7Y-103.65
X65.8Y-67.1
X66.0Y-100.35
X66.85Y-82.75
X66.9Y-127.5
X67.1Y-86.6
X67.297Y-102.268
X67.322Y-83.203
X67.35Y-100.35
X67.35Y-103.65
X67.422Y-61.032
X67.45Y-57.55
X67.595Y-119.792
X67.9Y-76.0
X68.2Y-82.9
X68.3Y-76.9
X68.4Y-84.8
X68.4Y-100.3
X68.825Y-121.7
X69.1Y-75.9
X69.1Y-97.7
X69.2Y-84.0
X69.3Y-57.2
X69.4Y-112.9
X69.829Y-96.851
X70.643Y-71.555
X70.75Y-85.5
X70.8Y-60.6
X70.8Y-82.4
X70.9Y-101.2
X71.0Y-98.6
X71.3Y-87.7
X71.525Y-62.0
X71.6Y-76.0
X71.8Y-108.8
X71.8Y-112.3
X72.25Y-87.7
X72.647Y-109.268
X73.0Y-78.4
X73.0Y-82.0
X73.0Y-85.3
X73.0Y-98.6
X73.0Y-100.1
X73.33Y-75.505
X73.4Y-56.2
X73.6Y-57.5
X73.7Y-88.6
X73.8Y-79.2
X74.525Y-76.0
X75.1Y-105.6
X75.1Y-106.7
X75.1Y-121.8
X75.15Y-82.4
X75.3Y-76.6
X75.3Y-110.6
X75.4Y-89.9
X75.4Y-97.4
X75.4Y-114.7
X75.52Y-58.1
X76.2Y-99.7
X76.65Y-88.0
X77.0Y-59.75
X77.0Y-89.9
X77.4Y-94.1
X77.475Y-95.0
X77.475Y-97.0
X77.8Y-99.7
X78.35Y-56.0
X78.85Y-105.9
T3
X63.0Y-132.5
X65.54Y-132.5
X68.08Y-132.5
X70.62Y-132.5
X73.16Y-132.5
X75.0Y-124.0
X75.0Y-126.54
X78.0Y-105.0
X78.0Y-107.54
X78.0Y-110.08
X78.0Y-112.62
X78.0Y-115.16
X78.0Y-117.7
X78.0Y-120.24
T4
X62.11Y-55.0
X67.89Y-55.0
T2
X60.68Y-51.65G85X60.68Y-51.05
G05
X60.68Y-56.08G85X60.68Y-54.98
G05
X69.32Y-51.65G85X69.32Y-51.05
G05
X69.32Y-56.08G85X69.32Y-54.98
G05
M30
